<svg width="38" height="39" viewBox="0 0 38 39" fill="none" xmlns="http://www.w3.org/2000/svg">
<path d="M25.0187 0.750003H12.9062C9.55113 0.754962 6.33484 2.08998 3.96241 4.46241C1.58997 6.83484 0.25496 10.0511 0.25 13.4063V25.5938C0.25496 28.9489 1.58997 32.1652 3.96241 34.5376C6.33484 36.91 9.55113 38.245 12.9062 38.25H25.0938C28.4489 38.245 31.6652 36.91 34.0376 34.5376C36.41 32.1652 37.745 28.9489 37.75 25.5938V13.4063C37.7476 11.7386 37.416 10.0878 36.7744 8.54848C36.1328 7.00916 35.1938 5.61159 34.0111 4.43586C32.8284 3.26013 31.4253 2.32935 29.8822 1.69685C28.3391 1.06436 26.6864 0.7426 25.0187 0.750003ZM12.3063 27.4312C12.3063 27.8291 12.1482 28.2106 11.8669 28.4919C11.5856 28.7732 11.2041 28.9313 10.8063 28.9313C10.4084 28.9313 10.0269 28.7732 9.74559 28.4919C9.46428 28.2106 9.30625 27.8291 9.30625 27.4312V17.8688C9.30625 17.4709 9.46428 17.0894 9.74559 16.8081C10.0269 16.5268 10.4084 16.3688 10.8063 16.3688C11.2041 16.3688 11.5856 16.5268 11.8669 16.8081C12.1482 17.0894 12.3063 17.4709 12.3063 17.8688V27.4312ZM20.65 27.4312C20.65 27.6282 20.6112 27.8233 20.5358 28.0053C20.4604 28.1873 20.3499 28.3526 20.2107 28.4919C20.0714 28.6312 19.906 28.7417 19.724 28.8171C19.542 28.8925 19.347 28.9313 19.15 28.9313C18.953 28.9313 18.758 28.8925 18.576 28.8171C18.394 28.7417 18.2286 28.6312 18.0893 28.4919C17.9501 28.3526 17.8396 28.1873 17.7642 28.0053C17.6888 27.8233 17.65 27.6282 17.65 27.4312V11.5875C17.65 11.1897 17.808 10.8081 18.0893 10.5268C18.3706 10.2455 18.7522 10.0875 19.15 10.0875C19.5478 10.0875 19.9294 10.2455 20.2107 10.5268C20.492 10.8081 20.65 11.1897 20.65 11.5875V27.4312ZM28.5438 27.4312C28.5438 27.8291 28.3857 28.2106 28.1044 28.4919C27.8231 28.7732 27.4416 28.9313 27.0438 28.9313C26.6459 28.9313 26.2644 28.7732 25.9831 28.4919C25.7018 28.2106 25.5437 27.8291 25.5437 27.4312V15.4125C25.5437 15.0147 25.7018 14.6331 25.9831 14.3518C26.2644 14.0705 26.6459 13.9125 27.0438 13.9125C27.4416 13.9125 27.8231 14.0705 28.1044 14.3518C28.3857 14.6331 28.5438 15.0147 28.5438 15.4125V27.4312Z" fill="url(#paint0_linear_51_228)"/>
<defs>
<linearGradient id="paint0_linear_51_228" x1="19" y1="0.749878" x2="19" y2="38.25" gradientUnits="userSpaceOnUse">
<stop stop-color="#0E87D2"/>
<stop offset="1" stop-color="#2E3192"/>
</linearGradient>
</defs>
</svg>
