<svg width="32" height="32" viewBox="0 0 32 32" fill="none" xmlns="http://www.w3.org/2000/svg">
<path d="M10.242 20.3083C10.2757 20.4299 10.333 20.5438 10.4106 20.6433C10.4883 20.7428 10.5847 20.826 10.6946 20.8883C10.8044 20.9505 10.9254 20.9905 11.0506 21.0059C11.1759 21.0214 11.303 21.012 11.4246 20.9784C11.5463 20.9447 11.6601 20.8875 11.7596 20.8098C11.8591 20.7322 11.9424 20.6357 12.0046 20.5259C12.0668 20.4161 12.1068 20.2951 12.1223 20.1698C12.1377 20.0445 12.1284 19.9174 12.0947 19.7958L10.242 20.3083ZM4.72499 6.80392C4.60286 6.76825 4.47486 6.75719 4.34843 6.77137C4.22199 6.78556 4.09963 6.82471 3.98844 6.88656C3.87725 6.94841 3.77946 7.03172 3.70072 7.13166C3.62199 7.23161 3.56389 7.34619 3.52979 7.46877C3.49569 7.59134 3.48627 7.71947 3.50208 7.84571C3.51788 7.97196 3.5586 8.09381 3.62188 8.20419C3.68515 8.31457 3.76971 8.41129 3.87065 8.48873C3.9716 8.56618 4.08692 8.62281 4.20992 8.65533L4.72499 6.80392ZM26.4909 20.8977C26.616 20.8687 26.734 20.815 26.838 20.7397C26.9421 20.6644 27.0299 20.5689 27.0964 20.4591C27.1629 20.3492 27.2067 20.2271 27.2253 20.1001C27.2438 19.973 27.2367 19.8435 27.2043 19.7192C27.1719 19.5949 27.1149 19.4784 27.0368 19.3765C26.9586 19.2746 26.8608 19.1894 26.7491 19.126C26.6375 19.0625 26.5142 19.0221 26.3867 19.0071C26.2591 18.9921 26.1299 19.0028 26.0065 19.0386L26.4909 20.8977ZM13.6899 23.2475C14.0871 24.6825 13.2158 26.1982 11.6732 26.5992L12.1562 28.4583C14.6893 27.801 16.237 25.2526 15.5426 22.735L13.6899 23.2475ZM11.6732 26.5992C10.1203 27.0028 8.56233 26.1008 8.16258 24.653L6.30989 25.1655C7.00177 27.6704 9.63345 29.1143 12.1562 28.4583L11.6732 26.5992ZM8.16258 24.653C7.76539 23.218 8.63664 21.7023 10.1793 21.3013L9.69623 19.4435C7.1632 20.1007 5.61417 22.6479 6.30989 25.1655L8.16258 24.653ZM10.1793 21.3013C11.7321 20.8977 13.2901 21.7997 13.6899 23.2475L15.5426 22.735C14.8507 20.2301 12.219 18.7862 9.69623 19.4422L10.1793 21.3013ZM12.0947 19.7958L9.33749 9.81486L7.4848 10.3274L10.242 20.3083L12.0947 19.7958ZM6.90824 7.40867L4.72499 6.80392L4.20992 8.65533L6.39445 9.26136L6.90824 7.40867ZM9.33749 9.81486C9.17458 9.23828 8.86525 8.71366 8.43957 8.29202C8.01389 7.87038 7.48634 7.56607 6.90824 7.40867L6.39702 9.26136C6.94155 9.41255 7.34642 9.82639 7.4848 10.3274L9.33749 9.81486ZM14.8597 23.9214L26.4909 20.8977L26.0078 19.0386L14.3754 22.0623L14.8597 23.9214Z" fill="black" fill-opacity="0.65"/>
<path d="M10.242 20.3083C10.2757 20.4299 10.333 20.5438 10.4106 20.6433C10.4883 20.7428 10.5847 20.826 10.6946 20.8883C10.8044 20.9505 10.9254 20.9905 11.0506 21.0059C11.1759 21.0214 11.303 21.012 11.4246 20.9784C11.5463 20.9447 11.6601 20.8875 11.7596 20.8098C11.8591 20.7322 11.9424 20.6357 12.0046 20.5259C12.0668 20.4161 12.1068 20.2951 12.1223 20.1698C12.1377 20.0445 12.1284 19.9174 12.0947 19.7958M10.242 20.3083L12.0947 19.7958M10.242 20.3083L7.4848 10.3274M12.0947 19.7958L9.33749 9.81486M8.40986 10.0711L9.33749 9.81486M9.33749 9.81486L7.4848 10.3274M9.33749 9.81486C9.17458 9.23828 8.86525 8.71366 8.43957 8.29202C8.01389 7.87038 7.48634 7.56607 6.90824 7.40867M6.65327 8.33502L6.39702 9.26136M6.39702 9.26136L6.90824 7.40867M6.39702 9.26136C6.94155 9.41255 7.34642 9.82639 7.4848 10.3274M4.72499 6.80392C4.60286 6.76825 4.47486 6.75719 4.34843 6.77137C4.22199 6.78556 4.09963 6.82471 3.98844 6.88656C3.87725 6.94841 3.77946 7.03172 3.70072 7.13166C3.62199 7.23161 3.56389 7.34619 3.52979 7.46877C3.49569 7.59134 3.48627 7.71947 3.50208 7.84571C3.51788 7.97196 3.5586 8.09381 3.62188 8.20419C3.68515 8.31457 3.76971 8.41129 3.87065 8.48873C3.9716 8.56618 4.08692 8.62281 4.20992 8.65533M4.72499 6.80392L4.20992 8.65533M4.72499 6.80392L6.90824 7.40867M4.20992 8.65533L6.39445 9.26136L6.90824 7.40867M26.4909 20.8977C26.616 20.8687 26.734 20.815 26.838 20.7397C26.9421 20.6644 27.0299 20.5689 27.0964 20.4591C27.1629 20.3492 27.2067 20.2271 27.2253 20.1001C27.2438 19.973 27.2367 19.8435 27.2043 19.7192C27.1719 19.5949 27.1149 19.4784 27.0368 19.3765C26.9586 19.2746 26.8608 19.1894 26.7491 19.126C26.6375 19.0625 26.5142 19.0221 26.3867 19.0071C26.2591 18.9921 26.1299 19.0028 26.0065 19.0386L26.4909 20.8977ZM26.4909 20.8977L14.8597 23.9214L14.3754 22.0623L26.0078 19.0386L26.4909 20.8977ZM13.6899 23.2475C14.0871 24.6825 13.2158 26.1982 11.6732 26.5992M13.6899 23.2475L15.5426 22.735M13.6899 23.2475C13.2901 21.7997 11.7321 20.8977 10.1793 21.3013M11.6732 26.5992L12.1562 28.4583M11.6732 26.5992C10.1203 27.0028 8.56233 26.1008 8.16258 24.653M12.1562 28.4583C14.6893 27.801 16.237 25.2526 15.5426 22.735M12.1562 28.4583C9.63345 29.1143 7.00177 27.6704 6.30989 25.1655M15.5426 22.735C14.8507 20.2301 12.219 18.7862 9.69623 19.4422L10.1793 21.3013M8.16258 24.653L6.30989 25.1655M8.16258 24.653C7.76539 23.218 8.63664 21.7023 10.1793 21.3013M6.30989 25.1655C5.61417 22.6479 7.1632 20.1007 9.69623 19.4435L10.1793 21.3013" stroke="#595959" stroke-width="0.75"/>
<path d="M12.8801 11.9353C12.2587 9.68671 11.9486 8.56177 12.4765 7.67643C13.0031 6.7898 14.1626 6.48871 16.4817 5.88524L18.9416 5.24718C21.2607 4.64499 22.4202 4.34261 23.3338 4.85383C24.2473 5.36633 24.5587 6.48999 25.1788 8.73986L25.8386 11.1255C26.46 13.3741 26.7714 14.4991 26.2435 15.3857C25.7156 16.2711 24.5561 16.5734 22.237 17.1756L19.777 17.815C17.458 18.4171 16.2984 18.7182 15.3849 18.207C14.4714 17.6945 14.1613 16.5709 13.5399 14.3223L12.8801 11.9353Z" stroke="black" stroke-opacity="0.65" stroke-width="2.625"/>
</svg>
