<svg width="30" height="30" viewBox="0 0 30 30" fill="none" xmlns="http://www.w3.org/2000/svg">
<path d="M19.5703 18.2812C19.3279 18.2812 19.0954 18.3776 18.924 18.549C18.7526 18.7204 18.6562 18.9529 18.6562 19.1953C18.6562 19.4377 18.7526 19.6702 18.924 19.8417C19.0954 20.0131 19.3279 20.1094 19.5703 20.1094H23.2266C23.469 20.1094 23.7015 20.0131 23.8729 19.8417C24.0443 19.6702 24.1406 19.4377 24.1406 19.1953C24.1406 18.9529 24.0443 18.7204 23.8729 18.549C23.7015 18.3776 23.469 18.2812 23.2266 18.2812H19.5703ZM2.20312 10.0547C2.20313 8.84257 2.68464 7.68009 3.54174 6.82299C4.39884 5.96589 5.56132 5.48438 6.77344 5.48438H23.2266C24.4387 5.48438 25.6012 5.96589 26.4583 6.82299C27.3154 7.68009 27.7969 8.84257 27.7969 10.0547V19.1953C27.7969 20.4074 27.3154 21.5699 26.4583 22.427C25.6012 23.2841 24.4387 23.7656 23.2266 23.7656H6.77344C5.56132 23.7656 4.39884 23.2841 3.54174 22.427C2.68464 21.5699 2.20312 20.4074 2.20312 19.1953V10.0547ZM25.9688 10.9688V10.0547C25.9688 9.32741 25.6798 8.62993 25.1656 8.11567C24.6513 7.60141 23.9538 7.3125 23.2266 7.3125H6.77344C6.04616 7.3125 5.34868 7.60141 4.83442 8.11567C4.32016 8.62993 4.03125 9.32741 4.03125 10.0547V10.9688H25.9688ZM4.03125 12.7969V19.1953C4.03125 19.9226 4.32016 20.6201 4.83442 21.1343C5.34868 21.6486 6.04616 21.9375 6.77344 21.9375H23.2266C23.9538 21.9375 24.6513 21.6486 25.1656 21.1343C25.6798 20.6201 25.9688 19.9226 25.9688 19.1953V12.7969H4.03125Z" fill="black" fill-opacity="0.65" stroke="#595959" stroke-width="0.75"/>
</svg>
