<svg width="24" height="24" viewBox="0 0 24 24" fill="none" xmlns="http://www.w3.org/2000/svg">
<g clip-path="url(#clip0_51_234)">
<path d="M11.4998 22.744L11.6062 22.8172L11.7126 22.7438L12.2422 22.3783L12.2518 22.3735L12.2665 22.3613L12.2782 22.3535L12.2782 22.3535L12.2825 22.3505C12.3942 22.2713 12.5049 22.1908 12.6146 22.1089L12.6151 22.1085C13.9258 21.1232 15.1434 20.0197 16.2526 18.8121L16.2529 18.8118C18.2062 16.676 20.3576 13.5481 20.3576 10.0146C20.3576 7.69357 19.4356 5.46757 17.7943 3.82634C16.1531 2.1851 13.9271 1.26306 11.6061 1.26306C9.285 1.26306 7.059 2.1851 5.41777 3.82634C3.77653 5.46757 2.85449 7.69357 2.85449 10.0146C2.85449 13.5481 5.00593 16.6751 6.9591 18.8136L6.95948 18.814C8.06902 20.0217 9.28696 21.1251 10.598 22.1104L10.6001 22.112L10.857 22.2995L10.857 22.2995L10.8593 22.3011L10.9307 22.3516L10.9314 22.352L10.944 22.3608L10.9513 22.367L10.9597 22.3725L10.9603 22.3729L10.9625 22.3744L11.4998 22.744ZM7.02864 5.43816C8.24265 4.22416 9.88919 3.54214 11.6061 3.54214C13.3229 3.54214 14.9695 4.22416 16.1835 5.43816C17.3975 6.65217 18.0795 8.29871 18.0795 10.0156C18.0795 12.6672 16.4247 15.2487 14.5717 17.2769C13.7949 18.1225 12.9598 18.9125 12.0725 19.6411C11.8993 19.7829 11.7439 19.9076 11.6062 20.0152C10.5441 19.1848 9.55212 18.2683 8.64034 17.275C6.78741 15.2487 5.13262 12.6663 5.13262 10.0156C5.13262 8.29871 5.81464 6.65217 7.02864 5.43816ZM10.3929 8.80245C10.7147 8.4807 11.151 8.29995 11.6061 8.29995C12.0611 8.29995 12.4974 8.4807 12.8192 8.80245C13.1409 9.12419 13.3217 9.56056 13.3217 10.0156C13.3217 10.4706 13.1409 10.907 12.8192 11.2287C12.4974 11.5504 12.0611 11.7312 11.6061 11.7312C11.151 11.7312 10.7147 11.5504 10.3929 11.2287C10.0712 10.907 9.89043 10.4706 9.89043 10.0156C9.89043 9.56056 10.0712 9.12419 10.3929 8.80245ZM8.78205 7.19157C8.03307 7.94054 7.61231 8.95637 7.61231 10.0156C7.61231 11.0748 8.03307 12.0906 8.78205 12.8396C9.53102 13.5886 10.5468 14.0093 11.6061 14.0093C12.6653 14.0093 13.6811 13.5886 14.4301 12.8396C15.179 12.0906 15.5998 11.0748 15.5998 10.0156C15.5998 8.95637 15.179 7.94054 14.4301 7.19157C13.6811 6.4426 12.6653 6.02183 11.6061 6.02183C10.5468 6.02183 9.53102 6.4426 8.78205 7.19157Z" fill="#595959" stroke="#595959" stroke-width="0.375"/>
</g>
<defs>
<clipPath id="clip0_51_234">
<rect width="22.8375" height="22.8375" fill="white" transform="translate(0.1875 0.5)"/>
</clipPath>
</defs>
</svg>
